<?xml version="1.0" encoding="UTF-8" standalone="no"?>
<svg
   xmlns:dc="http://purl.org/dc/elements/1.1/"
   xmlns:cc="http://creativecommons.org/ns#"
   xmlns:rdf="http://www.w3.org/1999/02/22-rdf-syntax-ns#"
   xmlns:svg="http://www.w3.org/2000/svg"
   xmlns="http://www.w3.org/2000/svg"
   xmlns:sodipodi="http://sodipodi.sourceforge.net/DTD/sodipodi-0.dtd"
   xmlns:inkscape="http://www.inkscape.org/namespaces/inkscape"
   version="1.1"
   id="svg10"
   width="225"
   height="225"
   viewBox="0 0 225 225"
   sodipodi:docname="device.svg"
   inkscape:version="1.0.1 (3bc2e813f5, 2020-09-07)">
  <metadata
     id="metadata16">
    <rdf:RDF>
      <cc:Work
         rdf:about="">
        <dc:format>image/svg+xml</dc:format>
        <dc:type
           rdf:resource="http://purl.org/dc/dcmitype/StillImage" />
        <dc:title></dc:title>
      </cc:Work>
    </rdf:RDF>
  </metadata>
  <defs
     id="defs14" />
  <sodipodi:namedview
     pagecolor="#ffffff"
     bordercolor="#666666"
     borderopacity="1"
     objecttolerance="10"
     gridtolerance="10"
     guidetolerance="10"
     inkscape:pageopacity="0"
     inkscape:pageshadow="2"
     inkscape:window-width="1366"
     inkscape:window-height="745"
     id="namedview12"
     showgrid="false"
     inkscape:zoom="2.3955556"
     inkscape:cx="112.5"
     inkscape:cy="112.5"
     inkscape:window-x="-8"
     inkscape:window-y="-8"
     inkscape:window-maximized="1"
     inkscape:current-layer="g18" />
  <g
     inkscape:groupmode="layer"
     inkscape:label="Image"
     id="g18">
    <path
       style="fill:#000000"
       d="m 223.18872,168.04359 c -3.28349,6.65809 2.63025,6.32098 -110.88671,6.32098 -113.8438423,0 -107.6776283,0.36014 -110.9227263,-6.4784 -1.37973401354,-2.90757 -1.57727301,-10.54997 -1.57727301,-61.0216 0,-50.471632 0.19753899646,-58.114022 1.57727301,-61.021602 3.245098,-6.83854 -2.921116,-6.4784 110.9227263,-6.4784 113.84384,0 107.67763,-0.36014 110.92273,6.4784 1.38074,2.9097 1.57443,10.53187 1.5545,61.172732 -0.0199,50.48291 -0.22239,58.25366 -1.59052,61.02789 z M 216.23058,47.935998 c -1.4081,-1.4081 -12.20996,-1.57143 -103.92857,-1.57143 -91.718614,0 -102.5204693,0.16333 -103.9285713,1.57143 -1.392041,1.39204 -1.571428,8.11905 -1.571428,58.928572 0,50.80953 0.179387,57.53653 1.571428,58.92858 1.408102,1.4081 12.2099573,1.57142 103.9285713,1.57142 91.71861,0 102.52047,-0.16332 103.92857,-1.57142 1.39204,-1.39205 1.57143,-8.11905 1.57143,-58.92858 0,-50.809522 -0.17939,-57.536532 -1.57143,-58.928572 z m -7.30697,72.266072 c -0.46628,0.73562 -1.92189,1.18562 -3.23469,1 -2.38615,-0.33739 -2.38691,-0.34197 -2.38691,-14.3375 0,-13.995521 7.6e-4,-14.000111 2.38691,-14.337491 1.3128,-0.18562 2.76841,0.26438 3.23469,1 0.46627,0.73562 0.84777,6.737491 0.84777,13.337491 0,6.6 -0.3815,12.60187 -0.84777,13.3375 z M 193.35,158.32475 c -0.79861,0.66278 -2.37361,0.91256 -3.5,0.55506 -2.02897,-0.64397 -2.04799,-1.12708 -2.04799,-52.01524 0,-50.888162 0.019,-51.371262 2.04799,-52.015232 4.98415,-1.58191 4.95201,-1.91956 4.95201,52.015232 0,42.71309 -0.21791,50.43596 -1.45201,51.46018 z m -158.595977,0.55506 c -4.984157,1.58191 -4.952012,1.91955 -4.952012,-52.01524 0,-53.934792 -0.03214,-53.597142 4.952012,-52.015232 2.028967,0.64397 2.047988,1.12707 2.047988,52.015232 0,50.88816 -0.01902,51.37127 -2.047988,52.01524 z m -13.59172,-38.20886 c -1.295178,1.29518 -5.143444,0.7011 -5.753303,-0.88817 -0.924604,-2.40948 -0.69384,-24.732871 0.271414,-26.255701 0.466277,-0.73562 1.921887,-1.18562 3.234687,-1 2.365922,0.33452 2.389345,0.45669 2.663869,13.893861 0.152327,7.45601 -0.03517,13.86851 -0.416667,14.25001 z"
       id="path22" />
  </g>
</svg>
